<svg id="kity_svg_6" xmlns="http://www.w3.org/2000/svg" xmlns:xlink="http://www.w3.org/1999/xlink" version="1.1" width="2442" height="3349" style="background: rgb(251, 251, 251); visibility: visible;" viewBox="0 0 2442 3349"><defs id="kity_defs_7"><linearGradient id="kity_linearGradient_17" x1="0" y1="0" x2="0" y2="1"><stop id="kity_stop_18" offset="0" stop-color="rgb(255, 255, 255)"></stop><stop id="kity_stop_19" offset="1" stop-color="rgb(204, 204, 204)"></stop></linearGradient><marker id="kity_marker_2" orient="auto" refX="6" refY="0" viewBox="-7 -7 14 14" markerWidth="7" markerHeight="7" markerUnits="userSpaceOnUse"><path id="kity_path_3" fill="rgb(115, 161, 191)" stroke="none" d="M6,0A6,6,0,1,1,-6,0A6,6,0,1,1,6,0"></path></marker></defs><g id="kity_g_8"><g id="minder1" text-rendering="geometricPrecision"><g id="minder_connect_group1"><path id="kity_path_31" fill="none" stroke="rgb(115, 161, 191)" stroke-width="1" d="M95,1574.5A192.5,1429,0,0,1,287.5,145.5"></path><path id="kity_path_33" fill="none" stroke="rgb(115, 161, 191)" stroke-width="1" d="M636.5,145.5C652.5,145.5,652.5,49.5,668.5,49.5"></path><path id="kity_path_35" fill="none" stroke="rgb(115, 161, 191)" stroke-width="1" d="M1039.5,49.5C1059.5,49.5,1059.5,49.5,1079.5,49.5"></path><path id="kity_path_37" fill="none" stroke="rgb(115, 161, 191)" stroke-width="1" d="M636.5,145.5C654.5,145.5,654.5,131.5,672.5,131.5"></path><path id="kity_path_39" fill="none" stroke="rgb(115, 161, 191)" stroke-width="1" d="M899.5,131.5C919.5,131.5,919.5,131.5,939.5,131.5"></path><path id="kity_path_41" fill="none" stroke="rgb(115, 161, 191)" stroke-width="1" d="M636.5,145.5C654,145.5,654,246.5,671.5,246.5"></path><path id="kity_path_43" fill="none" stroke="rgb(115, 161, 191)" stroke-width="1" d="M898.5,246.5C918.5,246.5,918.5,180.5,938.5,180.5"></path><path id="kity_path_45" fill="none" stroke="rgb(115, 161, 191)" stroke-width="1" d="M898.5,246.5C918.5,246.5,918.5,312.5,938.5,312.5"></path><path id="kity_path_47" fill="none" stroke="rgb(115, 161, 191)" stroke-width="1" d="M1150.5,312.5C1170.5,312.5,1170.5,268.5,1190.5,268.5"></path><path id="kity_path_49" fill="none" stroke="rgb(115, 161, 191)" stroke-width="1" d="M1150.5,312.5C1170.5,312.5,1170.5,356.5,1190.5,356.5"></path><path id="kity_path_51" fill="none" stroke="rgb(115, 161, 191)" stroke-width="1" d="M95,1574.5A192.5,66,0,0,1,287.5,1508.5"></path><path id="kity_path_53" fill="none" stroke="rgb(115, 161, 191)" stroke-width="1" d="M521.5,1508.5C541.5,1508.5,541.5,606.5,561.5,606.5"></path><path id="kity_path_55" fill="none" stroke="rgb(115, 161, 191)" stroke-width="1" d="M773.5,606.5C793.5,606.5,793.5,474.5,813.5,474.5"></path><path id="kity_path_57" fill="none" stroke="rgb(115, 161, 191)" stroke-width="1" d="M773.5,606.5C793.5,606.5,793.5,562.5,813.5,562.5"></path><path id="kity_path_59" fill="none" stroke="rgb(115, 161, 191)" stroke-width="1" d="M773.5,606.5C793.5,606.5,793.5,650.5,813.5,650.5"></path><path id="kity_path_61" fill="none" stroke="rgb(115, 161, 191)" stroke-width="1" d="M773.5,606.5C793.5,606.5,793.5,738.5,813.5,738.5"></path><path id="kity_path_63" fill="none" stroke="rgb(115, 161, 191)" stroke-width="1" d="M521.5,1508.5C541.5,1508.5,541.5,914.5,561.5,914.5"></path><path id="kity_path_65" fill="none" stroke="rgb(115, 161, 191)" stroke-width="1" d="M773.5,914.5C793.5,914.5,793.5,826.5,813.5,826.5"></path><path id="kity_path_67" fill="none" stroke="rgb(115, 161, 191)" stroke-width="1" d="M773.5,914.5C793.5,914.5,793.5,914.5,813.5,914.5"></path><path id="kity_path_69" fill="none" stroke="rgb(115, 161, 191)" stroke-width="1" d="M773.5,914.5C793.5,914.5,793.5,1002.5,813.5,1002.5"></path><path id="kity_path_71" fill="none" stroke="rgb(115, 161, 191)" stroke-width="1" d="M521.5,1508.5C541.5,1508.5,541.5,1552.5,561.5,1552.5"></path><path id="kity_path_73" fill="none" stroke="rgb(115, 161, 191)" stroke-width="1" d="M773.5,1552.5C793.5,1552.5,793.5,1178.5,813.5,1178.5"></path><path id="kity_path_75" fill="none" stroke="rgb(115, 161, 191)" stroke-width="1" d="M929.5,1178.5C949.5,1178.5,949.5,1090.5,969.5,1090.5"></path><path id="kity_path_77" fill="none" stroke="rgb(115, 161, 191)" stroke-width="1" d="M929.5,1178.5C949.5,1178.5,949.5,1178.5,969.5,1178.5"></path><path id="kity_path_79" fill="none" stroke="rgb(115, 161, 191)" stroke-width="1" d="M929.5,1178.5C949.5,1178.5,949.5,1266.5,969.5,1266.5"></path><path id="kity_path_81" fill="none" stroke="rgb(115, 161, 191)" stroke-width="1" d="M773.5,1552.5C793.5,1552.5,793.5,1926.5,813.5,1926.5"></path><path id="kity_path_83" fill="none" stroke="rgb(115, 161, 191)" stroke-width="1" d="M1015.5,1926.5C1035.5,1926.5,1035.5,1706.5,1055.5,1706.5"></path><path id="kity_path_85" fill="none" stroke="rgb(115, 161, 191)" stroke-width="1" d="M1267.5,1706.5C1287.5,1706.5,1287.5,1442.5,1307.5,1442.5"></path><path id="kity_path_87" fill="none" stroke="rgb(115, 161, 191)" stroke-width="1" d="M1648.5,1442.5C1668.5,1442.5,1668.5,1354.5,1688.5,1354.5"></path><path id="kity_path_89" fill="none" stroke="rgb(115, 161, 191)" stroke-width="1" d="M1648.5,1442.5C1668.5,1442.5,1668.5,1442.5,1688.5,1442.5"></path><path id="kity_path_91" fill="none" stroke="rgb(115, 161, 191)" stroke-width="1" d="M1648.5,1442.5C1668.5,1442.5,1668.5,1530.5,1688.5,1530.5"></path><path id="kity_path_93" fill="none" stroke="rgb(115, 161, 191)" stroke-width="1" d="M1267.5,1706.5C1287.5,1706.5,1287.5,1618.5,1307.5,1618.5"></path><path id="kity_path_95" fill="none" stroke="rgb(115, 161, 191)" stroke-width="1" d="M1267.5,1706.5C1287.5,1706.5,1287.5,1794.5,1307.5,1794.5"></path><path id="kity_path_97" fill="none" stroke="rgb(115, 161, 191)" stroke-width="1" d="M1648.5,1794.5C1668.5,1794.5,1668.5,1706.5,1688.5,1706.5"></path><path id="kity_path_99" fill="none" stroke="rgb(115, 161, 191)" stroke-width="1" d="M1648.5,1794.5C1668.5,1794.5,1668.5,1794.5,1688.5,1794.5"></path><path id="kity_path_101" fill="none" stroke="rgb(115, 161, 191)" stroke-width="1" d="M1648.5,1794.5C1668.5,1794.5,1668.5,1882.5,1688.5,1882.5"></path><path id="kity_path_103" fill="none" stroke="rgb(115, 161, 191)" stroke-width="1" d="M1267.5,1706.5C1287.5,1706.5,1287.5,1970.5,1307.5,1970.5"></path><path id="kity_path_105" fill="none" stroke="rgb(115, 161, 191)" stroke-width="1" d="M1015.5,1926.5C1035.5,1926.5,1035.5,2058.5,1055.5,2058.5"></path><path id="kity_path_107" fill="none" stroke="rgb(115, 161, 191)" stroke-width="1" d="M1015.5,1926.5C1035.5,1926.5,1035.5,2146.5,1055.5,2146.5"></path><path id="kity_path_109" fill="none" stroke="rgb(115, 161, 191)" stroke-width="1" d="M521.5,1508.5C541.5,1508.5,541.5,2410.5,561.5,2410.5"></path><path id="kity_path_111" fill="none" stroke="rgb(115, 161, 191)" stroke-width="1" d="M869.5,2410.5C889.5,2410.5,889.5,2234.5,909.5,2234.5"></path><path id="kity_path_113" fill="none" stroke="rgb(115, 161, 191)" stroke-width="1" d="M869.5,2410.5C889.5,2410.5,889.5,2322.5,909.5,2322.5"></path><path id="kity_path_115" fill="none" stroke="rgb(115, 161, 191)" stroke-width="1" d="M869.5,2410.5C889.5,2410.5,889.5,2410.5,909.5,2410.5"></path><path id="kity_path_117" fill="none" stroke="rgb(115, 161, 191)" stroke-width="1" d="M869.5,2410.5C889.5,2410.5,889.5,2498.5,909.5,2498.5"></path><path id="kity_path_119" fill="none" stroke="rgb(115, 161, 191)" stroke-width="1" d="M869.5,2410.5C889.5,2410.5,889.5,2586.5,909.5,2586.5"></path><path id="kity_path_121" fill="none" stroke="rgb(115, 161, 191)" stroke-width="1" d="M95,1574.5A192.5,1429,0,0,0,287.5,3003.5"></path><path id="kity_path_123" fill="none" stroke="rgb(115, 161, 191)" stroke-width="1" d="M857.5,3003.5C877.5,3003.5,877.5,2750.5,897.5,2750.5"></path><path id="kity_path_125" fill="none" stroke="rgb(115, 161, 191)" stroke-width="1" d="M1205.5,2750.5C1225.5,2750.5,1225.5,2684.5,1245.5,2684.5"></path><path id="kity_path_127" fill="none" stroke="rgb(115, 161, 191)" stroke-width="1" d="M1205.5,2750.5C1225.5,2750.5,1225.5,2816.5,1245.5,2816.5"></path><path id="kity_path_129" fill="none" stroke="rgb(115, 161, 191)" stroke-width="1" d="M1649.5,2816.5C1669.5,2816.5,1669.5,2772.5,1689.5,2772.5"></path><path id="kity_path_131" fill="none" stroke="rgb(115, 161, 191)" stroke-width="1" d="M1649.5,2816.5C1669.5,2816.5,1669.5,2860.5,1689.5,2860.5"></path><path id="kity_path_133" fill="none" stroke="rgb(115, 161, 191)" stroke-width="1" d="M857.5,3003.5C877.5,3003.5,877.5,3014.5,897.5,3014.5"></path><path id="kity_path_135" fill="none" stroke="rgb(115, 161, 191)" stroke-width="1" d="M1205.5,3014.5C1225.5,3014.5,1225.5,2948.5,1245.5,2948.5"></path><path id="kity_path_137" fill="none" stroke="rgb(115, 161, 191)" stroke-width="1" d="M1205.5,3014.5C1225.5,3014.5,1225.5,3080.5,1245.5,3080.5"></path><path id="kity_path_139" fill="none" stroke="rgb(115, 161, 191)" stroke-width="1" d="M1745.5,3080.5C1765.5,3080.5,1765.5,3036.5,1785.5,3036.5"></path><path id="kity_path_141" fill="none" stroke="rgb(115, 161, 191)" stroke-width="1" d="M1745.5,3080.5C1765.5,3080.5,1765.5,3124.5,1785.5,3124.5"></path><path id="kity_path_143" fill="none" stroke="rgb(115, 161, 191)" stroke-width="1" d="M857.5,3003.5C877.5,3003.5,877.5,3256.5,897.5,3256.5"></path><path id="kity_path_145" fill="none" stroke="rgb(115, 161, 191)" stroke-width="1" d="M1349.5,3256.5C1369.5,3256.5,1369.5,3212.5,1389.5,3212.5"></path><path id="kity_path_147" fill="none" stroke="rgb(115, 161, 191)" stroke-width="1" d="M1349.5,3256.5C1369.5,3256.5,1369.5,3300.5,1389.5,3300.5"></path></g><g id="minder_node1"><path id="node_outline1" fill="rgb(115, 161, 191)" stroke="rgb(115, 161, 191)" d="M25.5,1538.5h139a5,5,0,0,1,5,5v62a5,5,0,0,1,-5,5h-139a5,5,0,0,1,-5,-5v-62a5,5,0,0,1,5,-5z" stroke-width="3"></path><g id="node_text1" fill="white"><text id="kity_text_22" text-rendering="inherit" font-size="48" dy=".8em" y="1550.5" x="44.5">JVM</text></g></g><g id="kity_g_12"><path id="kity_path_13" fill="none" stroke="none" d="M44.5,1574.5h0v0h0z"></path></g><g id="kity_g_14"><path id="kity_path_15" fill="none" stroke="none" d="M44.5,1574.5h0v0h0z"></path><path id="kity_path_16" fill="none" stroke="none"></path></g><g id="minder_node2"><g id="node_expander10" style="cursor: pointer;"><path id="kity_path_353" fill="white" stroke="gray" d="M288.5,145.5A6,6,0,1,1,276.5,145.5A6,6,0,1,1,288.5,145.5"></path><path id="kity_path_354" fill="none" stroke="gray" d="M278,145.5L287,145.5"></path></g><path id="node_outline11" fill="rgb(238, 243, 246)" stroke="rgb(115, 161, 191)" d="M292.5,115.5h341a3,3,0,0,1,3,3v54a3,3,0,0,1,-3,3h-341a3,3,0,0,1,-3,-3v-54a3,3,0,0,1,3,-3z" stroke-width="1"></path><g id="node_text11" fill="black"><text id="kity_text_167" text-rendering="inherit" font-size="48" dy=".8em" y="121.5" x="309.5">Java代码执行</text></g></g><g id="minder_node3"><g id="node_expander2" style="cursor: pointer;"><path id="kity_path_329" fill="white" stroke="gray" d="M668.5,49.5A6,6,0,1,1,656.5,49.5A6,6,0,1,1,668.5,49.5"></path><path id="kity_path_330" fill="none" stroke="gray" d="M658,49.5L667,49.5"></path></g><path id="node_outline3" fill="none" stroke="none" d="M673.5,20.5h361a5,5,0,0,1,5,5v48a5,5,0,0,1,-5,5h-361a5,5,0,0,1,-5,-5v-48a5,5,0,0,1,5,-5z" stroke-width="3"></path><g id="node_text3" fill="black"><text id="kity_text_151" text-rendering="inherit" font-size="48" dy=".8em" y="25.5" x="678.5">代码编译为class</text></g></g><g id="minder_node4"><g id="node_expander1" style="cursor: pointer;" display="none"><path id="kity_path_326" fill="white" stroke="gray" d="M1079.5,49.5A6,6,0,1,1,1067.5,49.5A6,6,0,1,1,1079.5,49.5"></path><path id="kity_path_327" fill="none" stroke="gray"></path></g><path id="node_outline2" fill="none" stroke="none" d="M1084.5,20.5h143a5,5,0,0,1,5,5v48a5,5,0,0,1,-5,5h-143a5,5,0,0,1,-5,-5v-48a5,5,0,0,1,5,-5z" stroke-width="3"></path><g id="node_text2" fill="black"><text id="kity_text_149" text-rendering="inherit" font-size="48" dy=".8em" y="25.5" x="1089.5">javac</text></g></g><g id="minder_node5"><g id="node_expander4" style="cursor: pointer;"><path id="kity_path_335" fill="white" stroke="gray" d="M672.5,131.5A6,6,0,1,1,660.5,131.5A6,6,0,1,1,672.5,131.5"></path><path id="kity_path_336" fill="none" stroke="gray" d="M662,131.5L671,131.5"></path></g><path id="node_outline5" fill="none" stroke="none" d="M677.5,102.5h217a5,5,0,0,1,5,5v48a5,5,0,0,1,-5,5h-217a5,5,0,0,1,-5,-5v-48a5,5,0,0,1,5,-5z" stroke-width="3"></path><g id="node_text5" fill="black"><text id="kity_text_155" text-rendering="inherit" font-size="48" dy=".8em" y="107.5" x="682.5">装载class</text></g></g><g id="minder_node6"><g id="node_expander3" style="cursor: pointer;" display="none"><path id="kity_path_332" fill="white" stroke="gray" d="M939.5,131.5A6,6,0,1,1,927.5,131.5A6,6,0,1,1,939.5,131.5"></path><path id="kity_path_333" fill="none" stroke="gray"></path></g><path id="node_outline4" fill="none" stroke="none" d="M944.5,102.5h294a5,5,0,0,1,5,5v48a5,5,0,0,1,-5,5h-294a5,5,0,0,1,-5,-5v-48a5,5,0,0,1,5,-5z" stroke-width="3"></path><g id="node_text4" fill="black"><text id="kity_text_153" text-rendering="inherit" font-size="48" dy=".8em" y="107.5" x="949.5">ClassLoader</text></g></g><g id="minder_node7"><g id="node_expander9" style="cursor: pointer;"><path id="kity_path_350" fill="white" stroke="gray" d="M671.5,246.5A6,6,0,1,1,659.5,246.5A6,6,0,1,1,671.5,246.5"></path><path id="kity_path_351" fill="none" stroke="gray" d="M661,246.5L670,246.5"></path></g><path id="node_outline10" fill="none" stroke="none" d="M676.5,217.5h217a5,5,0,0,1,5,5v48a5,5,0,0,1,-5,5h-217a5,5,0,0,1,-5,-5v-48a5,5,0,0,1,5,-5z" stroke-width="3"></path><g id="node_text10" fill="black"><text id="kity_text_165" text-rendering="inherit" font-size="48" dy=".8em" y="222.5" x="681.5">执行class</text></g></g><g id="minder_node8"><g id="node_expander5" style="cursor: pointer;" display="none"><path id="kity_path_338" fill="white" stroke="gray" d="M938.5,180.5A6,6,0,1,1,926.5,180.5A6,6,0,1,1,938.5,180.5"></path><path id="kity_path_339" fill="none" stroke="gray"></path></g><path id="node_outline6" fill="none" stroke="none" d="M943.5,151.5h202a5,5,0,0,1,5,5v48a5,5,0,0,1,-5,5h-202a5,5,0,0,1,-5,-5v-48a5,5,0,0,1,5,-5z" stroke-width="3"></path><g id="node_text6" fill="black"><text id="kity_text_157" text-rendering="inherit" font-size="48" dy=".8em" y="156.5" x="948.5">解释执行</text></g></g><g id="minder_node9"><g id="node_expander8" style="cursor: pointer;"><path id="kity_path_347" fill="white" stroke="gray" d="M938.5,312.5A6,6,0,1,1,926.5,312.5A6,6,0,1,1,938.5,312.5"></path><path id="kity_path_348" fill="none" stroke="gray" d="M928,312.5L937,312.5"></path></g><path id="node_outline9" fill="none" stroke="none" d="M943.5,283.5h202a5,5,0,0,1,5,5v48a5,5,0,0,1,-5,5h-202a5,5,0,0,1,-5,-5v-48a5,5,0,0,1,5,-5z" stroke-width="3"></path><g id="node_text9" fill="black"><text id="kity_text_163" text-rendering="inherit" font-size="48" dy=".8em" y="288.5" x="948.5">编译执行</text></g></g><g id="minder_node10"><g id="node_expander6" style="cursor: pointer;" display="none"><path id="kity_path_341" fill="white" stroke="gray" d="M1190.5,268.5A6,6,0,1,1,1178.5,268.5A6,6,0,1,1,1190.5,268.5"></path><path id="kity_path_342" fill="none" stroke="gray"></path></g><path id="node_outline7" fill="none" stroke="none" d="M1195.5,239.5h354a5,5,0,0,1,5,5v48a5,5,0,0,1,-5,5h-354a5,5,0,0,1,-5,-5v-48a5,5,0,0,1,5,-5z" stroke-width="3"></path><g id="node_text7" fill="black"><text id="kity_text_159" text-rendering="inherit" font-size="48" dy=".8em" y="244.5" x="1200.5">client compiler</text></g></g><g id="minder_node11"><g id="node_expander7" style="cursor: pointer;" display="none"><path id="kity_path_344" fill="white" stroke="gray" d="M1190.5,356.5A6,6,0,1,1,1178.5,356.5A6,6,0,1,1,1190.5,356.5"></path><path id="kity_path_345" fill="none" stroke="gray"></path></g><path id="node_outline8" fill="none" stroke="none" d="M1195.5,327.5h364a5,5,0,0,1,5,5v48a5,5,0,0,1,-5,5h-364a5,5,0,0,1,-5,-5v-48a5,5,0,0,1,5,-5z" stroke-width="3"></path><g id="node_text8" fill="black"><text id="kity_text_161" text-rendering="inherit" font-size="48" dy=".8em" y="332.5" x="1200.5">server compiler</text></g></g><g id="minder_node12"><g id="node_expander45" style="cursor: pointer;"><path id="kity_path_458" fill="white" stroke="gray" d="M288.5,1508.5A6,6,0,1,1,276.5,1508.5A6,6,0,1,1,288.5,1508.5"></path><path id="kity_path_459" fill="none" stroke="gray" d="M278,1508.5L287,1508.5"></path></g><path id="node_outline46" fill="rgb(238, 243, 246)" stroke="rgb(115, 161, 191)" d="M292.5,1478.5h226a3,3,0,0,1,3,3v54a3,3,0,0,1,-3,3h-226a3,3,0,0,1,-3,-3v-54a3,3,0,0,1,3,-3z" stroke-width="1"></path><g id="node_text46" fill="black"><text id="kity_text_237" text-rendering="inherit" font-size="48" dy=".8em" y="1484.5" x="309.5">内存管理</text></g></g><g id="minder_node13"><g id="node_expander15" style="cursor: pointer;"><path id="kity_path_368" fill="white" stroke="gray" d="M561.5,606.5A6,6,0,1,1,549.5,606.5A6,6,0,1,1,561.5,606.5"></path><path id="kity_path_369" fill="none" stroke="gray" d="M551,606.5L560,606.5"></path></g><path id="node_outline16" fill="none" stroke="none" d="M566.5,577.5h202a5,5,0,0,1,5,5v48a5,5,0,0,1,-5,5h-202a5,5,0,0,1,-5,-5v-48a5,5,0,0,1,5,-5z" stroke-width="3"></path><g id="node_text16" fill="black"><text id="kity_text_177" text-rendering="inherit" font-size="48" dy=".8em" y="582.5" x="571.5">内存空间</text></g></g><g id="minder_node14"><g id="node_expander11" style="cursor: pointer;" display="none"><path id="kity_path_356" fill="white" stroke="gray" d="M813.5,474.5A6,6,0,1,1,801.5,474.5A6,6,0,1,1,813.5,474.5"></path><path id="kity_path_357" fill="none" stroke="gray"></path></g><path id="node_outline12" fill="none" stroke="none" d="M818.5,445.5h154a5,5,0,0,1,5,5v48a5,5,0,0,1,-5,5h-154a5,5,0,0,1,-5,-5v-48a5,5,0,0,1,5,-5z" stroke-width="3"></path><g id="node_text12" fill="black"><text id="kity_text_169" text-rendering="inherit" font-size="48" dy=".8em" y="450.5" x="823.5">方法区</text></g></g><g id="minder_node15"><g id="node_expander12" style="cursor: pointer;" display="none"><path id="kity_path_359" fill="white" stroke="gray" d="M813.5,562.5A6,6,0,1,1,801.5,562.5A6,6,0,1,1,813.5,562.5"></path><path id="kity_path_360" fill="none" stroke="gray"></path></g><path id="node_outline13" fill="none" stroke="none" d="M818.5,533.5h58a5,5,0,0,1,5,5v48a5,5,0,0,1,-5,5h-58a5,5,0,0,1,-5,-5v-48a5,5,0,0,1,5,-5z" stroke-width="3"></path><g id="node_text13" fill="black"><text id="kity_text_171" text-rendering="inherit" font-size="48" dy=".8em" y="538.5" x="823.5">堆</text></g></g><g id="minder_node16"><g id="node_expander13" style="cursor: pointer;" display="none"><path id="kity_path_362" fill="white" stroke="gray" d="M813.5,650.5A6,6,0,1,1,801.5,650.5A6,6,0,1,1,813.5,650.5"></path><path id="kity_path_363" fill="none" stroke="gray"></path></g><path id="node_outline14" fill="none" stroke="none" d="M818.5,621.5h154a5,5,0,0,1,5,5v48a5,5,0,0,1,-5,5h-154a5,5,0,0,1,-5,-5v-48a5,5,0,0,1,5,-5z" stroke-width="3"></path><g id="node_text14" fill="black"><text id="kity_text_173" text-rendering="inherit" font-size="48" dy=".8em" y="626.5" x="823.5">方法栈</text></g></g><g id="minder_node17"><g id="node_expander14" style="cursor: pointer;" display="none"><path id="kity_path_365" fill="white" stroke="gray" d="M813.5,738.5A6,6,0,1,1,801.5,738.5A6,6,0,1,1,813.5,738.5"></path><path id="kity_path_366" fill="none" stroke="gray"></path></g><path id="node_outline15" fill="none" stroke="none" d="M818.5,709.5h218a5,5,0,0,1,5,5v48a5,5,0,0,1,-5,5h-218a5,5,0,0,1,-5,-5v-48a5,5,0,0,1,5,-5z" stroke-width="3"></path><g id="node_text15" fill="black"><text id="kity_text_175" text-rendering="inherit" font-size="48" dy=".8em" y="714.5" x="823.5">pc寄存器</text></g></g><g id="minder_node18"><g id="node_expander19" style="cursor: pointer;"><path id="kity_path_380" fill="white" stroke="gray" d="M561.5,914.5A6,6,0,1,1,549.5,914.5A6,6,0,1,1,561.5,914.5"></path><path id="kity_path_381" fill="none" stroke="gray" d="M551,914.5L560,914.5"></path></g><path id="node_outline20" fill="none" stroke="none" d="M566.5,885.5h202a5,5,0,0,1,5,5v48a5,5,0,0,1,-5,5h-202a5,5,0,0,1,-5,-5v-48a5,5,0,0,1,5,-5z" stroke-width="3"></path><g id="node_text20" fill="black"><text id="kity_text_185" text-rendering="inherit" font-size="48" dy=".8em" y="890.5" x="571.5">内存分配</text></g></g><g id="minder_node19"><g id="node_expander16" style="cursor: pointer;" display="none"><path id="kity_path_371" fill="white" stroke="gray" d="M813.5,826.5A6,6,0,1,1,801.5,826.5A6,6,0,1,1,813.5,826.5"></path><path id="kity_path_372" fill="none" stroke="gray"></path></g><path id="node_outline17" fill="none" stroke="none" d="M818.5,797.5h202a5,5,0,0,1,5,5v48a5,5,0,0,1,-5,5h-202a5,5,0,0,1,-5,-5v-48a5,5,0,0,1,5,-5z" stroke-width="3"></path><g id="node_text17" fill="black"><text id="kity_text_179" text-rendering="inherit" font-size="48" dy=".8em" y="802.5" x="823.5">堆上分配</text></g></g><g id="minder_node20"><g id="node_expander17" style="cursor: pointer;" display="none"><path id="kity_path_374" fill="white" stroke="gray" d="M813.5,914.5A6,6,0,1,1,801.5,914.5A6,6,0,1,1,813.5,914.5"></path><path id="kity_path_375" fill="none" stroke="gray"></path></g><path id="node_outline18" fill="none" stroke="none" d="M818.5,885.5h212a5,5,0,0,1,5,5v48a5,5,0,0,1,-5,5h-212a5,5,0,0,1,-5,-5v-48a5,5,0,0,1,5,-5z" stroke-width="3"></path><g id="node_text18" fill="black"><text id="kity_text_181" text-rendering="inherit" font-size="48" dy=".8em" y="890.5" x="823.5">TLAB分配</text></g></g><g id="minder_node21"><g id="node_expander18" style="cursor: pointer;" display="none"><path id="kity_path_377" fill="white" stroke="gray" d="M813.5,1002.5A6,6,0,1,1,801.5,1002.5A6,6,0,1,1,813.5,1002.5"></path><path id="kity_path_378" fill="none" stroke="gray"></path></g><path id="node_outline19" fill="none" stroke="none" d="M818.5,973.5h202a5,5,0,0,1,5,5v48a5,5,0,0,1,-5,5h-202a5,5,0,0,1,-5,-5v-48a5,5,0,0,1,5,-5z" stroke-width="3"></path><g id="node_text19" fill="black"><text id="kity_text_183" text-rendering="inherit" font-size="48" dy=".8em" y="978.5" x="823.5">栈上分配</text></g></g><g id="minder_node22"><g id="node_expander38" style="cursor: pointer;"><path id="kity_path_437" fill="white" stroke="gray" d="M561.5,1552.5A6,6,0,1,1,549.5,1552.5A6,6,0,1,1,561.5,1552.5"></path><path id="kity_path_438" fill="none" stroke="gray" d="M551,1552.5L560,1552.5"></path></g><path id="node_outline39" fill="none" stroke="none" d="M566.5,1523.5h202a5,5,0,0,1,5,5v48a5,5,0,0,1,-5,5h-202a5,5,0,0,1,-5,-5v-48a5,5,0,0,1,5,-5z" stroke-width="3"></path><g id="node_text39" fill="black"><text id="kity_text_223" text-rendering="inherit" font-size="48" dy=".8em" y="1528.5" x="571.5">内存回收</text></g></g><g id="minder_node23"><g id="node_expander23" style="cursor: pointer;"><path id="kity_path_392" fill="white" stroke="gray" d="M813.5,1178.5A6,6,0,1,1,801.5,1178.5A6,6,0,1,1,813.5,1178.5"></path><path id="kity_path_393" fill="none" stroke="gray" d="M803,1178.5L812,1178.5"></path></g><path id="node_outline24" fill="none" stroke="none" d="M818.5,1149.5h106a5,5,0,0,1,5,5v48a5,5,0,0,1,-5,5h-106a5,5,0,0,1,-5,-5v-48a5,5,0,0,1,5,-5z" stroke-width="3"></path><g id="node_text24" fill="black"><text id="kity_text_193" text-rendering="inherit" font-size="48" dy=".8em" y="1154.5" x="823.5">算法</text></g></g><g id="minder_node24"><g id="node_expander20" style="cursor: pointer;" display="none"><path id="kity_path_383" fill="white" stroke="gray" d="M969.5,1090.5A6,6,0,1,1,957.5,1090.5A6,6,0,1,1,969.5,1090.5"></path><path id="kity_path_384" fill="none" stroke="gray"></path></g><path id="node_outline21" fill="none" stroke="none" d="M974.5,1061.5h139a5,5,0,0,1,5,5v48a5,5,0,0,1,-5,5h-139a5,5,0,0,1,-5,-5v-48a5,5,0,0,1,5,-5z" stroke-width="3"></path><g id="node_text21" fill="black"><text id="kity_text_187" text-rendering="inherit" font-size="48" dy=".8em" y="1066.5" x="979.5">Copy</text></g></g><g id="minder_node25"><g id="node_expander21" style="cursor: pointer;" display="none"><path id="kity_path_386" fill="white" stroke="gray" d="M969.5,1178.5A6,6,0,1,1,957.5,1178.5A6,6,0,1,1,969.5,1178.5"></path><path id="kity_path_387" fill="none" stroke="gray"></path></g><path id="node_outline22" fill="none" stroke="none" d="M974.5,1149.5h300a5,5,0,0,1,5,5v48a5,5,0,0,1,-5,5h-300a5,5,0,0,1,-5,-5v-48a5,5,0,0,1,5,-5z" stroke-width="3"></path><g id="node_text22" fill="black"><text id="kity_text_189" text-rendering="inherit" font-size="48" dy=".8em" y="1154.5" x="979.5">Mark-Sweep</text></g></g><g id="minder_node26"><g id="node_expander22" style="cursor: pointer;" display="none"><path id="kity_path_389" fill="white" stroke="gray" d="M969.5,1266.5A6,6,0,1,1,957.5,1266.5A6,6,0,1,1,969.5,1266.5"></path><path id="kity_path_390" fill="none" stroke="gray"></path></g><path id="node_outline23" fill="none" stroke="none" d="M974.5,1237.5h370a5,5,0,0,1,5,5v48a5,5,0,0,1,-5,5h-370a5,5,0,0,1,-5,-5v-48a5,5,0,0,1,5,-5z" stroke-width="3"></path><g id="node_text23" fill="black"><text id="kity_text_191" text-rendering="inherit" font-size="48" dy=".8em" y="1242.5" x="979.5">Mark-Compact</text></g></g><g id="minder_node27"><g id="node_expander37" style="cursor: pointer;"><path id="kity_path_434" fill="white" stroke="gray" d="M813.5,1926.5A6,6,0,1,1,801.5,1926.5A6,6,0,1,1,813.5,1926.5"></path><path id="kity_path_435" fill="none" stroke="gray" d="M803,1926.5L812,1926.5"></path></g><path id="node_outline38" fill="none" stroke="none" d="M818.5,1897.5h192a5,5,0,0,1,5,5v48a5,5,0,0,1,-5,5h-192a5,5,0,0,1,-5,-5v-48a5,5,0,0,1,5,-5z" stroke-width="3"></path><g id="node_text38" fill="black"><text id="kity_text_221" text-rendering="inherit" font-size="48" dy=".8em" y="1902.5" x="823.5">Sun JDK</text></g></g><g id="minder_node28"><g id="node_expander34" style="cursor: pointer;"><path id="kity_path_425" fill="white" stroke="gray" d="M1055.5,1706.5A6,6,0,1,1,1043.5,1706.5A6,6,0,1,1,1055.5,1706.5"></path><path id="kity_path_426" fill="none" stroke="gray" d="M1045,1706.5L1054,1706.5"></path></g><path id="node_outline35" fill="none" stroke="none" d="M1060.5,1677.5h202a5,5,0,0,1,5,5v48a5,5,0,0,1,-5,5h-202a5,5,0,0,1,-5,-5v-48a5,5,0,0,1,5,-5z" stroke-width="3"></path><g id="node_text35" fill="black"><text id="kity_text_215" text-rendering="inherit" font-size="48" dy=".8em" y="1682.5" x="1065.5">分代回收</text></g></g><g id="minder_node29"><g id="node_expander27" style="cursor: pointer;"><path id="kity_path_404" fill="white" stroke="gray" d="M1307.5,1442.5A6,6,0,1,1,1295.5,1442.5A6,6,0,1,1,1307.5,1442.5"></path><path id="kity_path_405" fill="none" stroke="gray" d="M1297,1442.5L1306,1442.5"></path></g><path id="node_outline28" fill="none" stroke="none" d="M1312.5,1413.5h331a5,5,0,0,1,5,5v48a5,5,0,0,1,-5,5h-331a5,5,0,0,1,-5,-5v-48a5,5,0,0,1,5,-5z" stroke-width="3"></path><g id="node_text28" fill="black"><text id="kity_text_201" text-rendering="inherit" font-size="48" dy=".8em" y="1418.5" x="1317.5">新生带可用GC</text></g></g><g id="minder_node30"><g id="node_expander24" style="cursor: pointer;" display="none"><path id="kity_path_395" fill="white" stroke="gray" d="M1688.5,1354.5A6,6,0,1,1,1676.5,1354.5A6,6,0,1,1,1688.5,1354.5"></path><path id="kity_path_396" fill="none" stroke="gray"></path></g><path id="node_outline25" fill="none" stroke="none" d="M1693.5,1325.5h298a5,5,0,0,1,5,5v48a5,5,0,0,1,-5,5h-298a5,5,0,0,1,-5,-5v-48a5,5,0,0,1,5,-5z" stroke-width="3"></path><g id="node_text25" fill="black"><text id="kity_text_195" text-rendering="inherit" font-size="48" dy=".8em" y="1330.5" x="1698.5">串行copying</text></g></g><g id="minder_node31"><g id="node_expander25" style="cursor: pointer;" display="none"><path id="kity_path_398" fill="white" stroke="gray" d="M1688.5,1442.5A6,6,0,1,1,1676.5,1442.5A6,6,0,1,1,1688.5,1442.5"></path><path id="kity_path_399" fill="none" stroke="gray"></path></g><path id="node_outline26" fill="none" stroke="none" d="M1693.5,1413.5h394a5,5,0,0,1,5,5v48a5,5,0,0,1,-5,5h-394a5,5,0,0,1,-5,-5v-48a5,5,0,0,1,5,-5z" stroke-width="3"></path><g id="node_text26" fill="black"><text id="kity_text_197" text-rendering="inherit" font-size="48" dy=".8em" y="1418.5" x="1698.5">并行回收copying</text></g></g><g id="minder_node32"><g id="node_expander26" style="cursor: pointer;" display="none"><path id="kity_path_401" fill="white" stroke="gray" d="M1688.5,1530.5A6,6,0,1,1,1676.5,1530.5A6,6,0,1,1,1688.5,1530.5"></path><path id="kity_path_402" fill="none" stroke="gray"></path></g><path id="node_outline27" fill="none" stroke="none" d="M1693.5,1501.5h298a5,5,0,0,1,5,5v48a5,5,0,0,1,-5,5h-298a5,5,0,0,1,-5,-5v-48a5,5,0,0,1,5,-5z" stroke-width="3"></path><g id="node_text27" fill="black"><text id="kity_text_199" text-rendering="inherit" font-size="48" dy=".8em" y="1506.5" x="1698.5">并行copying</text></g></g><g id="minder_node33"><g id="node_expander28" style="cursor: pointer;" display="none"><path id="kity_path_407" fill="white" stroke="gray" d="M1307.5,1618.5A6,6,0,1,1,1295.5,1618.5A6,6,0,1,1,1307.5,1618.5"></path><path id="kity_path_408" fill="none" stroke="gray"></path></g><path id="node_outline29" fill="none" stroke="none" d="M1312.5,1589.5h712a5,5,0,0,1,5,5v48a5,5,0,0,1,-5,5h-712a5,5,0,0,1,-5,-5v-48a5,5,0,0,1,5,-5z" stroke-width="3"></path><g id="node_text29" fill="black"><text id="kity_text_203" text-rendering="inherit" font-size="48" dy=".8em" y="1594.5" x="1317.5">Minor GC触发机制以及日志格式</text></g></g><g id="minder_node34"><g id="node_expander32" style="cursor: pointer;"><path id="kity_path_419" fill="white" stroke="gray" d="M1307.5,1794.5A6,6,0,1,1,1295.5,1794.5A6,6,0,1,1,1307.5,1794.5"></path><path id="kity_path_420" fill="none" stroke="gray" d="M1297,1794.5L1306,1794.5"></path></g><path id="node_outline33" fill="none" stroke="none" d="M1312.5,1765.5h331a5,5,0,0,1,5,5v48a5,5,0,0,1,-5,5h-331a5,5,0,0,1,-5,-5v-48a5,5,0,0,1,5,-5z" stroke-width="3"></path><g id="node_text33" fill="black"><text id="kity_text_211" text-rendering="inherit" font-size="48" dy=".8em" y="1770.5" x="1317.5">旧生代可用GC</text></g></g><g id="minder_node35"><g id="node_expander29" style="cursor: pointer;" display="none"><path id="kity_path_410" fill="white" stroke="gray" d="M1688.5,1706.5A6,6,0,1,1,1676.5,1706.5A6,6,0,1,1,1688.5,1706.5"></path><path id="kity_path_411" fill="none" stroke="gray"></path></g><path id="node_outline30" fill="none" stroke="none" d="M1693.5,1677.5h641a5,5,0,0,1,5,5v48a5,5,0,0,1,-5,5h-641a5,5,0,0,1,-5,-5v-48a5,5,0,0,1,5,-5z" stroke-width="3"></path><g id="node_text30" fill="black"><text id="kity_text_205" text-rendering="inherit" font-size="48" dy=".8em" y="1682.5" x="1698.5">串行Mark-Sweep-Compact</text></g></g><g id="minder_node36"><g id="node_expander30" style="cursor: pointer;" display="none"><path id="kity_path_413" fill="white" stroke="gray" d="M1688.5,1794.5A6,6,0,1,1,1676.5,1794.5A6,6,0,1,1,1688.5,1794.5"></path><path id="kity_path_414" fill="none" stroke="gray"></path></g><path id="node_outline31" fill="none" stroke="none" d="M1693.5,1765.5h406a5,5,0,0,1,5,5v48a5,5,0,0,1,-5,5h-406a5,5,0,0,1,-5,-5v-48a5,5,0,0,1,5,-5z" stroke-width="3"></path><g id="node_text31" fill="black"><text id="kity_text_207" text-rendering="inherit" font-size="48" dy=".8em" y="1770.5" x="1698.5">并行Compacting</text></g></g><g id="minder_node37"><g id="node_expander31" style="cursor: pointer;" display="none"><path id="kity_path_416" fill="white" stroke="gray" d="M1688.5,1882.5A6,6,0,1,1,1676.5,1882.5A6,6,0,1,1,1688.5,1882.5"></path><path id="kity_path_417" fill="none" stroke="gray"></path></g><path id="node_outline32" fill="none" stroke="none" d="M1693.5,1853.5h396a5,5,0,0,1,5,5v48a5,5,0,0,1,-5,5h-396a5,5,0,0,1,-5,-5v-48a5,5,0,0,1,5,-5z" stroke-width="3"></path><g id="node_text32" fill="black"><text id="kity_text_209" text-rendering="inherit" font-size="48" dy=".8em" y="1858.5" x="1698.5">并发Mark-Sweep</text></g></g><g id="minder_node38"><g id="node_expander33" style="cursor: pointer;" display="none"><path id="kity_path_422" fill="white" stroke="gray" d="M1307.5,1970.5A6,6,0,1,1,1295.5,1970.5A6,6,0,1,1,1307.5,1970.5"></path><path id="kity_path_423" fill="none" stroke="gray"></path></g><path id="node_outline34" fill="none" stroke="none" d="M1312.5,1941.5h655a5,5,0,0,1,5,5v48a5,5,0,0,1,-5,5h-655a5,5,0,0,1,-5,-5v-48a5,5,0,0,1,5,-5z" stroke-width="3"></path><g id="node_text34" fill="black"><text id="kity_text_213" text-rendering="inherit" font-size="48" dy=".8em" y="1946.5" x="1317.5">Full GC触发机制以及日志格式</text></g></g><g id="minder_node39"><g id="node_expander35" style="cursor: pointer;" display="none"><path id="kity_path_428" fill="white" stroke="gray" d="M1055.5,2058.5A6,6,0,1,1,1043.5,2058.5A6,6,0,1,1,1055.5,2058.5"></path><path id="kity_path_429" fill="none" stroke="gray"></path></g><path id="node_outline36" fill="none" stroke="none" d="M1060.5,2029.5h187a5,5,0,0,1,5,5v48a5,5,0,0,1,-5,5h-187a5,5,0,0,1,-5,-5v-48a5,5,0,0,1,5,-5z" stroke-width="3"></path><g id="node_text36" fill="black"><text id="kity_text_217" text-rendering="inherit" font-size="48" dy=".8em" y="2034.5" x="1065.5">GC参数</text></g></g><g id="minder_node40"><g id="node_expander36" style="cursor: pointer;" display="none"><path id="kity_path_431" fill="white" stroke="gray" d="M1055.5,2146.5A6,6,0,1,1,1043.5,2146.5A6,6,0,1,1,1055.5,2146.5"></path><path id="kity_path_432" fill="none" stroke="gray"></path></g><path id="node_outline37" fill="none" stroke="none" d="M1060.5,2117.5h78a5,5,0,0,1,5,5v48a5,5,0,0,1,-5,5h-78a5,5,0,0,1,-5,-5v-48a5,5,0,0,1,5,-5z" stroke-width="3"></path><g id="node_text37" fill="black"><text id="kity_text_219" text-rendering="inherit" font-size="48" dy=".8em" y="2122.5" x="1065.5">G1</text></g></g><g id="minder_node41"><g id="node_expander44" style="cursor: pointer;"><path id="kity_path_455" fill="white" stroke="gray" d="M561.5,2410.5A6,6,0,1,1,549.5,2410.5A6,6,0,1,1,561.5,2410.5"></path><path id="kity_path_456" fill="none" stroke="gray" d="M551,2410.5L560,2410.5"></path></g><path id="node_outline45" fill="none" stroke="none" d="M566.5,2381.5h298a5,5,0,0,1,5,5v48a5,5,0,0,1,-5,5h-298a5,5,0,0,1,-5,-5v-48a5,5,0,0,1,5,-5z" stroke-width="3"></path><g id="node_text45" fill="black"><text id="kity_text_235" text-rendering="inherit" font-size="48" dy=".8em" y="2386.5" x="571.5">内存状态分析</text></g></g><g id="minder_node42"><g id="node_expander39" style="cursor: pointer;" display="none"><path id="kity_path_440" fill="white" stroke="gray" d="M909.5,2234.5A6,6,0,1,1,897.5,2234.5A6,6,0,1,1,909.5,2234.5"></path><path id="kity_path_441" fill="none" stroke="gray"></path></g><path id="node_outline40" fill="none" stroke="none" d="M914.5,2205.5h190a5,5,0,0,1,5,5v48a5,5,0,0,1,-5,5h-190a5,5,0,0,1,-5,-5v-48a5,5,0,0,1,5,-5z" stroke-width="3"></path><g id="node_text40" fill="black"><text id="kity_text_225" text-rendering="inherit" font-size="48" dy=".8em" y="2210.5" x="919.5">jsonsole</text></g></g><g id="minder_node43"><g id="node_expander40" style="cursor: pointer;" display="none"><path id="kity_path_443" fill="white" stroke="gray" d="M909.5,2322.5A6,6,0,1,1,897.5,2322.5A6,6,0,1,1,909.5,2322.5"></path><path id="kity_path_444" fill="none" stroke="gray"></path></g><path id="node_outline41" fill="none" stroke="none" d="M914.5,2293.5h208a5,5,0,0,1,5,5v48a5,5,0,0,1,-5,5h-208a5,5,0,0,1,-5,-5v-48a5,5,0,0,1,5,-5z" stroke-width="3"></path><g id="node_text41" fill="black"><text id="kity_text_227" text-rendering="inherit" font-size="48" dy=".8em" y="2298.5" x="919.5">visualvm</text></g></g><g id="minder_node44"><g id="node_expander41" style="cursor: pointer;" display="none"><path id="kity_path_446" fill="white" stroke="gray" d="M909.5,2410.5A6,6,0,1,1,897.5,2410.5A6,6,0,1,1,909.5,2410.5"></path><path id="kity_path_447" fill="none" stroke="gray"></path></g><path id="node_outline42" fill="none" stroke="none" d="M914.5,2381.5h104a5,5,0,0,1,5,5v48a5,5,0,0,1,-5,5h-104a5,5,0,0,1,-5,-5v-48a5,5,0,0,1,5,-5z" stroke-width="3"></path><g id="node_text42" fill="black"><text id="kity_text_229" text-rendering="inherit" font-size="48" dy=".8em" y="2386.5" x="919.5">jstat</text></g></g><g id="minder_node45"><g id="node_expander42" style="cursor: pointer;" display="none"><path id="kity_path_449" fill="white" stroke="gray" d="M909.5,2498.5A6,6,0,1,1,897.5,2498.5A6,6,0,1,1,909.5,2498.5"></path><path id="kity_path_450" fill="none" stroke="gray"></path></g><path id="node_outline43" fill="none" stroke="none" d="M914.5,2469.5h130a5,5,0,0,1,5,5v48a5,5,0,0,1,-5,5h-130a5,5,0,0,1,-5,-5v-48a5,5,0,0,1,5,-5z" stroke-width="3"></path><g id="node_text43" fill="black"><text id="kity_text_231" text-rendering="inherit" font-size="48" dy=".8em" y="2474.5" x="919.5">jmap</text></g></g><g id="minder_node46"><g id="node_expander43" style="cursor: pointer;" display="none"><path id="kity_path_452" fill="white" stroke="gray" d="M909.5,2586.5A6,6,0,1,1,897.5,2586.5A6,6,0,1,1,909.5,2586.5"></path><path id="kity_path_453" fill="none" stroke="gray"></path></g><path id="node_outline44" fill="none" stroke="none" d="M914.5,2557.5h110a5,5,0,0,1,5,5v48a5,5,0,0,1,-5,5h-110a5,5,0,0,1,-5,-5v-48a5,5,0,0,1,5,-5z" stroke-width="3"></path><g id="node_text44" fill="black"><text id="kity_text_233" text-rendering="inherit" font-size="48" dy=".8em" y="2562.5" x="919.5">MAT</text></g></g><g id="minder_node47"><g id="node_expander59" style="cursor: pointer;"><path id="kity_path_500" fill="white" stroke="gray" d="M288.5,3003.5A6,6,0,1,1,276.5,3003.5A6,6,0,1,1,288.5,3003.5"></path><path id="kity_path_501" fill="none" stroke="gray" d="M278,3003.5L287,3003.5"></path></g><path id="node_outline60" fill="rgb(238, 243, 246)" stroke="rgb(115, 161, 191)" d="M292.5,2973.5h562a3,3,0,0,1,3,3v54a3,3,0,0,1,-3,3h-562a3,3,0,0,1,-3,-3v-54a3,3,0,0,1,3,-3z" stroke-width="1"></path><g id="node_text60" fill="black"><text id="kity_text_265" text-rendering="inherit" font-size="48" dy=".8em" y="2979.5" x="309.5">线程资源同步和交互机制</text></g></g><g id="minder_node48"><g id="node_expander50" style="cursor: pointer;"><path id="kity_path_473" fill="white" stroke="gray" d="M897.5,2750.5A6,6,0,1,1,885.5,2750.5A6,6,0,1,1,897.5,2750.5"></path><path id="kity_path_474" fill="none" stroke="gray" d="M887,2750.5L896,2750.5"></path></g><path id="node_outline51" fill="none" stroke="none" d="M902.5,2721.5h298a5,5,0,0,1,5,5v48a5,5,0,0,1,-5,5h-298a5,5,0,0,1,-5,-5v-48a5,5,0,0,1,5,-5z" stroke-width="3"></path><g id="node_text51" fill="black"><text id="kity_text_247" text-rendering="inherit" font-size="48" dy=".8em" y="2726.5" x="907.5">线程资源同步</text></g></g><g id="minder_node49"><g id="node_expander46" style="cursor: pointer;" display="none"><path id="kity_path_461" fill="white" stroke="gray" d="M1245.5,2684.5A6,6,0,1,1,1233.5,2684.5A6,6,0,1,1,1245.5,2684.5"></path><path id="kity_path_462" fill="none" stroke="gray"></path></g><path id="node_outline47" fill="none" stroke="none" d="M1250.5,2655.5h394a5,5,0,0,1,5,5v48a5,5,0,0,1,-5,5h-394a5,5,0,0,1,-5,-5v-48a5,5,0,0,1,5,-5z" stroke-width="3"></path><g id="node_text47" fill="black"><text id="kity_text_239" text-rendering="inherit" font-size="48" dy=".8em" y="2660.5" x="1255.5">线程资源执行机制</text></g></g><g id="minder_node50"><g id="node_expander49" style="cursor: pointer;"><path id="kity_path_470" fill="white" stroke="gray" d="M1245.5,2816.5A6,6,0,1,1,1233.5,2816.5A6,6,0,1,1,1245.5,2816.5"></path><path id="kity_path_471" fill="none" stroke="gray" d="M1235,2816.5L1244,2816.5"></path></g><path id="node_outline50" fill="none" stroke="none" d="M1250.5,2787.5h394a5,5,0,0,1,5,5v48a5,5,0,0,1,-5,5h-394a5,5,0,0,1,-5,-5v-48a5,5,0,0,1,5,-5z" stroke-width="3"></path><g id="node_text50" fill="black"><text id="kity_text_245" text-rendering="inherit" font-size="48" dy=".8em" y="2792.5" x="1255.5">线程资源同步机制</text></g></g><g id="minder_node51"><g id="node_expander47" style="cursor: pointer;" display="none"><path id="kity_path_464" fill="white" stroke="gray" d="M1689.5,2772.5A6,6,0,1,1,1677.5,2772.5A6,6,0,1,1,1689.5,2772.5"></path><path id="kity_path_465" fill="none" stroke="gray"></path></g><path id="node_outline48" fill="none" stroke="none" d="M1694.5,2743.5h558a5,5,0,0,1,5,5v48a5,5,0,0,1,-5,5h-558a5,5,0,0,1,-5,-5v-48a5,5,0,0,1,5,-5z" stroke-width="3"></path><g id="node_text48" fill="black"><text id="kity_text_241" text-rendering="inherit" font-size="48" dy=".8em" y="2748.5" x="1699.5">Synchronized的实现机制</text></g></g><g id="minder_node52"><g id="node_expander48" style="cursor: pointer;" display="none"><path id="kity_path_467" fill="white" stroke="gray" d="M1689.5,2860.5A6,6,0,1,1,1677.5,2860.5A6,6,0,1,1,1689.5,2860.5"></path><path id="kity_path_468" fill="none" stroke="gray"></path></g><path id="node_outline49" fill="none" stroke="none" d="M1694.5,2831.5h522a5,5,0,0,1,5,5v48a5,5,0,0,1,-5,5h-522a5,5,0,0,1,-5,-5v-48a5,5,0,0,1,5,-5z" stroke-width="3"></path><g id="node_text49" fill="black"><text id="kity_text_243" text-rendering="inherit" font-size="48" dy=".8em" y="2836.5" x="1699.5">lock/unlock的实现机制</text></g></g><g id="minder_node53"><g id="node_expander55" style="cursor: pointer;"><path id="kity_path_488" fill="white" stroke="gray" d="M897.5,3014.5A6,6,0,1,1,885.5,3014.5A6,6,0,1,1,897.5,3014.5"></path><path id="kity_path_489" fill="none" stroke="gray" d="M887,3014.5L896,3014.5"></path></g><path id="node_outline56" fill="none" stroke="none" d="M902.5,2985.5h298a5,5,0,0,1,5,5v48a5,5,0,0,1,-5,5h-298a5,5,0,0,1,-5,-5v-48a5,5,0,0,1,5,-5z" stroke-width="3"></path><g id="node_text56" fill="black"><text id="kity_text_257" text-rendering="inherit" font-size="48" dy=".8em" y="2990.5" x="907.5">线程交互机制</text></g></g><g id="minder_node54"><g id="node_expander51" style="cursor: pointer;" display="none"><path id="kity_path_476" fill="white" stroke="gray" d="M1245.5,2948.5A6,6,0,1,1,1233.5,2948.5A6,6,0,1,1,1245.5,2948.5"></path><path id="kity_path_477" fill="none" stroke="gray"></path></g><path id="node_outline52" fill="none" stroke="none" d="M1250.5,2919.5h1167a5,5,0,0,1,5,5v48a5,5,0,0,1,-5,5h-1167a5,5,0,0,1,-5,-5v-48a5,5,0,0,1,5,-5z" stroke-width="3"></path><g id="node_text52" fill="black"><text id="kity_text_249" text-rendering="inherit" font-size="48" dy=".8em" y="2924.5" x="1255.5">Object.wait/notify/notifyAll-Double check pattem</text></g></g><g id="minder_node55"><g id="node_expander54" style="cursor: pointer;"><path id="kity_path_485" fill="white" stroke="gray" d="M1245.5,3080.5A6,6,0,1,1,1233.5,3080.5A6,6,0,1,1,1245.5,3080.5"></path><path id="kity_path_486" fill="none" stroke="gray" d="M1235,3080.5L1244,3080.5"></path></g><path id="node_outline55" fill="none" stroke="none" d="M1250.5,3051.5h490a5,5,0,0,1,5,5v48a5,5,0,0,1,-5,5h-490a5,5,0,0,1,-5,-5v-48a5,5,0,0,1,5,-5z" stroke-width="3"></path><g id="node_text55" fill="black"><text id="kity_text_255" text-rendering="inherit" font-size="48" dy=".8em" y="3056.5" x="1255.5">并发包提供的交互机制</text></g></g><g id="minder_node56"><g id="node_expander52" style="cursor: pointer;" display="none"><path id="kity_path_479" fill="white" stroke="gray" d="M1785.5,3036.5A6,6,0,1,1,1773.5,3036.5A6,6,0,1,1,1785.5,3036.5"></path><path id="kity_path_480" fill="none" stroke="gray"></path></g><path id="node_outline53" fill="none" stroke="none" d="M1790.5,3007.5h282a5,5,0,0,1,5,5v48a5,5,0,0,1,-5,5h-282a5,5,0,0,1,-5,-5v-48a5,5,0,0,1,5,-5z" stroke-width="3"></path><g id="node_text53" fill="black"><text id="kity_text_251" text-rendering="inherit" font-size="48" dy=".8em" y="3012.5" x="1795.5">Semaphore</text></g></g><g id="minder_node57"><g id="node_expander53" style="cursor: pointer;" display="none"><path id="kity_path_482" fill="white" stroke="gray" d="M1785.5,3124.5A6,6,0,1,1,1773.5,3124.5A6,6,0,1,1,1785.5,3124.5"></path><path id="kity_path_483" fill="none" stroke="gray"></path></g><path id="node_outline54" fill="none" stroke="none" d="M1790.5,3095.5h420a5,5,0,0,1,5,5v48a5,5,0,0,1,-5,5h-420a5,5,0,0,1,-5,-5v-48a5,5,0,0,1,5,-5z" stroke-width="3"></path><g id="node_text54" fill="black"><text id="kity_text_253" text-rendering="inherit" font-size="48" dy=".8em" y="3100.5" x="1795.5">CountdownLatch</text></g></g><g id="minder_node58"><g id="node_expander58" style="cursor: pointer;"><path id="kity_path_497" fill="white" stroke="gray" d="M897.5,3256.5A6,6,0,1,1,885.5,3256.5A6,6,0,1,1,897.5,3256.5"></path><path id="kity_path_498" fill="none" stroke="gray" d="M887,3256.5L896,3256.5"></path></g><path id="node_outline59" fill="none" stroke="none" d="M902.5,3227.5h442a5,5,0,0,1,5,5v48a5,5,0,0,1,-5,5h-442a5,5,0,0,1,-5,-5v-48a5,5,0,0,1,5,-5z" stroke-width="3"></path><g id="node_text59" fill="black"><text id="kity_text_263" text-rendering="inherit" font-size="48" dy=".8em" y="3232.5" x="907.5">线程状态及分析方法</text></g></g><g id="minder_node59"><g id="node_expander56" style="cursor: pointer;" display="none"><path id="kity_path_491" fill="white" stroke="gray" d="M1389.5,3212.5A6,6,0,1,1,1377.5,3212.5A6,6,0,1,1,1389.5,3212.5"></path><path id="kity_path_492" fill="none" stroke="gray"></path></g><path id="node_outline57" fill="none" stroke="none" d="M1394.5,3183.5h143a5,5,0,0,1,5,5v48a5,5,0,0,1,-5,5h-143a5,5,0,0,1,-5,-5v-48a5,5,0,0,1,5,-5z" stroke-width="3"></path><g id="node_text57" fill="black"><text id="kity_text_259" text-rendering="inherit" font-size="48" dy=".8em" y="3188.5" x="1399.5">jstack</text></g></g><g id="minder_node60"><g id="node_expander57" style="cursor: pointer;" display="none"><path id="kity_path_494" fill="white" stroke="gray" d="M1389.5,3300.5A6,6,0,1,1,1377.5,3300.5A6,6,0,1,1,1389.5,3300.5"></path><path id="kity_path_495" fill="none" stroke="gray"></path></g><path id="node_outline58" fill="none" stroke="none" d="M1394.5,3271.5h102a5,5,0,0,1,5,5v48a5,5,0,0,1,-5,5h-102a5,5,0,0,1,-5,-5v-48a5,5,0,0,1,5,-5z" stroke-width="3"></path><g id="node_text58" fill="black"><text id="kity_text_261" text-rendering="inherit" font-size="48" dy=".8em" y="3276.5" x="1399.5">TDA</text></g></g></g></g></svg>